<svg version="1.0" xmlns="http://www.w3.org/2000/svg"
 width="67.068493pt" height="48.000000pt" viewBox="0 0 67.068493 48.000000"
 preserveAspectRatio="xMidYMid meet">
<metadata>
Created by potrace 1.16, written by Peter Selinger 2001-2019
</metadata>
<g transform="translate(0.000000,48.000000) scale(0.021918,-0.021918)"
fill="#000000" stroke="none">
<path d="M0 1095 l0 -1095 1530 0 1530 0 0 1095 0 1095 -1530 0 -1530 0 0
-1095z m2051 689 c75 -23 123 -48 164 -89 34 -35 35 -38 35 -115 0 -44 -3 -80
-8 -80 -4 0 -18 21 -31 46 -39 73 -127 156 -206 195 -61 30 -78 34 -150 34
-185 0 -285 -114 -206 -236 54 -84 126 -135 336 -238 211 -104 278 -181 279
-317 0 -113 -72 -205 -186 -239 -67 -19 -204 -19 -281 1 -93 24 -193 79 -258
143 l-59 57 0 95 c0 53 3 99 7 102 3 4 15 -12 25 -34 58 -131 182 -265 296
-321 88 -44 203 -51 280 -18 56 24 108 75 118 116 11 45 -22 109 -92 173 -48
44 -105 80 -234 146 -181 93 -256 149 -291 217 -29 57 -34 124 -15 190 9 31
16 58 16 61 0 3 -22 19 -50 37 -63 40 -136 60 -227 60 l-73 0 0 -520 0 -520
-60 0 -60 0 0 521 0 522 -97 -5 c-104 -5 -166 -25 -230 -74 l-33 -25 0 60 0
61 420 0 420 0 0 -57 0 -57 38 36 c68 66 131 86 263 87 60 1 115 -5 150 -15z"/>
</g>
</svg>