<svg version="1.0" xmlns="http://www.w3.org/2000/svg"
 width="85.607143pt" height="36.000000pt" viewBox="0 0 85.607143 36.000000"
 preserveAspectRatio="xMidYMid meet">
<metadata>
Created by potrace 1.16, written by Peter Selinger 2001-2019
</metadata>
<g transform="translate(0.000000,36.000000) scale(0.010714,-0.010714)"
fill="#000000" stroke="none">
<path d="M4795 2649 c-381 -42 -645 -277 -645 -575 0 -103 -34 -94 353 -94
l340 0 -62 64 c-81 85 -116 159 -116 246 0 141 108 250 246 250 36 0 41 -4 92
-77 30 -43 100 -150 156 -238 57 -88 109 -160 117 -160 18 0 304 272 304 288
-1 34 -140 155 -240 210 -88 48 -147 67 -260 83 -105 15 -166 16 -285 3z"/>
<path d="M2217 2633 c-4 -3 -7 -134 -7 -290 l0 -283 60 0 60 0 0 44 c0 95 3
99 129 185 124 84 275 177 342 212 34 17 43 18 50 7 5 -7 9 -129 9 -271 l0
-257 248 2 247 3 3 268 c1 147 5 267 8 267 19 0 235 -130 385 -231 116 -78
116 -79 123 -125 3 -26 6 -60 6 -75 0 -29 1 -29 60 -29 l60 0 -2 288 -3 287
-886 3 c-487 1 -889 -1 -892 -5z"/>
<path d="M600 1775 c0 -23 3 -25 50 -25 l50 0 0 -130 0 -130 30 0 30 0 0 130
0 130 50 0 c47 0 50 2 50 25 l0 25 -130 0 -130 0 0 -25z"/>
<path d="M1170 1645 l0 -155 25 0 25 0 0 155 0 155 -25 0 -25 0 0 -155z"/>
<path d="M1570 1645 l0 -155 115 0 115 0 0 25 c0 25 -1 25 -85 25 l-85 0 0 40
0 40 70 0 c68 0 70 1 70 25 0 24 -2 25 -70 25 l-70 0 0 40 0 40 80 0 c79 0 80
0 80 25 l0 25 -110 0 -110 0 0 -155z"/>
<path d="M2130 1645 l0 -155 25 0 c24 0 24 1 27 103 l3 102 84 -102 c63 -78
90 -103 107 -103 l24 0 0 155 0 155 -30 0 -29 0 -3 -102 -3 -102 -80 101 c-58
74 -86 102 -102 103 -23 0 -23 -1 -23 -155z"/>
<path d="M2750 1645 l0 -155 83 0 c142 1 207 49 207 155 0 106 -65 154 -207
155 l-83 0 0 -155z m196 87 c28 -22 44 -54 44 -87 0 -68 -44 -104 -127 -105
l-63 0 0 105 0 105 63 0 c44 0 68 -6 83 -18z"/>
<path d="M3396 1651 c-36 -81 -66 -151 -66 -155 0 -3 11 -6 25 -6 19 0 28 8
39 35 l15 35 79 0 78 0 17 -35 c13 -27 23 -35 43 -35 17 0 24 4 21 13 -3 6
-33 76 -68 155 -58 132 -65 142 -90 142 -25 0 -31 -10 -93 -149z"/>
<path d="M3990 1782 c-76 -38 -59 -123 31 -150 87 -27 99 -33 99 -57 0 -13 -7
-26 -16 -29 -29 -11 -95 -6 -124 9 -27 14 -29 14 -36 -7 -8 -28 15 -45 72 -54
84 -12 146 15 160 72 11 43 -23 76 -102 100 -57 17 -70 24 -72 43 -2 13 2 28
10 32 18 12 81 11 111 0 20 -8 27 -6 31 5 10 26 7 32 -25 43 -46 16 -99 13
-139 -7z"/>
<path d="M4910 1782 c-76 -38 -59 -123 31 -150 87 -27 99 -33 99 -57 0 -13 -7
-26 -16 -29 -29 -11 -95 -6 -124 9 -27 14 -29 14 -36 -7 -8 -28 15 -45 72 -54
84 -12 146 15 160 72 11 43 -23 76 -102 100 -57 17 -70 24 -72 43 -2 13 2 28
10 32 18 12 81 11 111 0 20 -8 27 -6 31 5 10 26 7 32 -25 43 -46 16 -99 13
-139 -7z"/>
<path d="M5482 1779 c-109 -54 -108 -215 1 -268 56 -27 102 -27 157 2 56 27
96 98 86 150 -10 53 -43 97 -89 117 -55 25 -102 25 -155 -1z m159 -60 c23 -24
29 -40 29 -74 0 -34 -6 -50 -29 -74 -24 -26 -36 -31 -75 -31 -36 0 -52 6 -78
28 -27 25 -31 36 -31 77 0 41 4 52 31 77 26 22 42 28 78 28 39 0 51 -5 75 -31z"/>
<path d="M6050 1645 l0 -155 30 0 30 0 0 60 0 60 70 0 c68 0 70 1 70 25 0 24
-2 25 -70 25 l-70 0 0 45 0 45 80 0 c79 0 80 0 80 25 l0 25 -110 0 -110 0 0
-155z"/>
<path d="M6590 1645 l0 -155 30 0 30 0 0 155 0 155 -30 0 -30 0 0 -155z"/>
<path d="M7081 1778 c-5 -13 -36 -83 -69 -155 l-60 -133 27 0 c21 0 31 8 44
35 l17 35 79 0 79 0 12 -35 c10 -30 16 -35 42 -35 16 0 28 4 26 8 -1 5 -32 74
-68 155 -61 138 -67 147 -93 147 -19 0 -30 -7 -36 -22z"/>
<path d="M2860 1033 c0 -153 -4 -283 -8 -290 -5 -8 -46 -13 -122 -15 l-115 -3
0 -55 0 -55 485 0 485 0 3 58 3 57 -116 0 -115 0 0 290 0 290 -250 0 -250 0 0
-277z"/>
<path d="M4951 1251 c77 -81 102 -137 102 -227 -1 -55 -6 -81 -26 -121 -49
-97 -162 -179 -261 -190 l-43 -5 -78 123 c-90 141 -164 268 -206 352 -17 32
-36 60 -43 63 -8 3 -58 -27 -113 -67 -54 -39 -126 -92 -160 -117 -35 -25 -63
-50 -63 -56 1 -21 60 -105 120 -170 91 -96 207 -165 352 -207 106 -30 371 -38
488 -15 186 37 305 98 415 211 107 110 166 275 151 419 l-8 66 -342 0 -342 0
57 -59z"/>
</g>
</svg>